<svg id="Calque_1" data-name="Calque 1" xmlns="http://www.w3.org/2000/svg" viewBox="0 0 290 50"><defs><style>.cls-1{fill:#ef7d00;}.cls-2{fill:#fff;}</style></defs><title>loco-MobilePlan de travail 3</title><path class="cls-1" d="M4.25,38.35A1,1,0,0,1,3.51,38a1,1,0,0,1-.25-.76c.1-1.09.18-4,.18-6.75V19c0-3,0-6.68-.14-7.69a1,1,0,0,1,1-1.09H12c6.94,0,9.4,4,9.4,7.33a6.55,6.55,0,0,1-2.15,5,8,8,0,0,1,3.83,6.83c0,4.49-3.37,9-10.89,9ZM11.77,32c1.41,0,3.78-.37,3.78-2.82,0-2.13-1.81-2.9-3.51-2.9h-1.1V32Zm0-11.69a2,2,0,0,0,2.29-2c0-1.49-1.36-2-2.63-2h-.53v4Z"/><path class="cls-2" d="M12,11.2c6.15,0,8.4,3.24,8.4,6.33a5.35,5.35,0,0,1-3.17,5.08,7.14,7.14,0,0,1,4.85,6.72c0,4.28-3.32,8-9.89,8h-8c.12-1.18.19-4.24.19-6.84V19c0-2.63,0-6.64-.15-7.78H12M9.94,21.31h1.87a3,3,0,0,0,3.29-3c0-1.87-1.53-3-3.63-3H9.94v6M9.94,33h1.83c2.87,0,4.78-1.34,4.78-3.82s-1.87-3.9-4.51-3.9H9.94V33M12,9.2H4.29a2,2,0,0,0-2,2.2c.1,1,.14,4.61.14,7.58V30.51c0,2.68-.08,5.59-.18,6.65a2,2,0,0,0,2,2.19h8A12.91,12.91,0,0,0,21,36.44a9.38,9.38,0,0,0,3.15-7.11,8.87,8.87,0,0,0-3.32-7,7.64,7.64,0,0,0,1.64-4.83c0-3.84-2.72-8.33-10.4-8.33Zm-.1,10.11v-2c.53.07,1.16.3,1.16,1,0,.26,0,1-1.16,1Zm0,8H12c.94,0,2.51.25,2.51,1.9,0,1.17-.88,1.78-2.61,1.82V27.28Z"/><path class="cls-1" d="M34.68,38.62A10.17,10.17,0,1,1,45.07,28.49,10.27,10.27,0,0,1,34.68,38.62Zm0-13.79a3.5,3.5,0,0,0-3.39,3.66,3.45,3.45,0,0,0,3.39,3.58,3.49,3.49,0,0,0,3.39-3.58A3.54,3.54,0,0,0,34.68,24.83Z"/><path class="cls-2" d="M34.68,19.29a9.17,9.17,0,1,1-9.39,9.2,9.29,9.29,0,0,1,9.39-9.2m0,13.78a4.48,4.48,0,0,0,4.39-4.58,4.4,4.4,0,1,0-8.78,0,4.43,4.43,0,0,0,4.39,4.58m0-15.78a11.17,11.17,0,1,0,11.39,11.2,11.31,11.31,0,0,0-11.39-11.2Zm0,13.78a2.44,2.44,0,0,1-2.39-2.58,2.49,2.49,0,0,1,2.39-2.66,2.54,2.54,0,0,1,2.39,2.66,2.49,2.49,0,0,1-2.39,2.58Z"/><path class="cls-1" d="M54.11,38.69c-4.45,0-7.22-3.2-7.22-8.37V23.65H46a1,1,0,0,1-.86-1.51,16.59,16.59,0,0,0,1.17-2.82,1,1,0,0,1,1-.69h6A1,1,0,0,1,54,19a1,1,0,0,1,.27.75c-.07,1.07-.15,2.78-.15,3.79v6.19c0,2.54,1.41,2.81,2,2.81,1,0,2-.75,2-2.85V23.49c0-1.15,0-2.76-.15-3.75a1,1,0,0,1,1-1.11H64.5a1,1,0,0,1,.74.33,1.07,1.07,0,0,1,.26.78c-.11,1-.15,2.59-.15,3.75v9.89a8.64,8.64,0,0,0,.51,3.54,1,1,0,0,1-.06,1,1,1,0,0,1-.84.47H59.84a1,1,0,0,1-.88-.52,5,5,0,0,1-.27-.62A6.91,6.91,0,0,1,54.11,38.69Z"/><path class="cls-2" d="M64.5,19.63c-.11,1.11-.15,2.83-.15,3.86v9.89a9.34,9.34,0,0,0,.61,4H59.84A5.6,5.6,0,0,1,59.31,35a5.69,5.69,0,0,1-5.2,2.67c-3.66,0-6.22-2.55-6.22-7.37V22.65H46a17.09,17.09,0,0,0,1.26-3h6c-.07,1.11-.15,2.83-.15,3.86v6.19c0,2.94,1.68,3.81,3,3.81s3-1.1,3-3.85V23.49c0-1,0-2.75-.16-3.86H64.5m-11.23,0h0m11.22-2H59a2,2,0,0,0-1.48.66A2.06,2.06,0,0,0,57,19.84c.1.95.15,2.56.15,3.65v6.15c0,.43-.07,1.85-1,1.85-.68,0-1-.61-1-1.81V23.49c0-1,.07-2.56.14-3.62a1.79,1.79,0,0,0,0-.24,2,2,0,0,0-2-2h-6A2,2,0,0,0,45.34,19a15.66,15.66,0,0,1-1.08,2.63,2,2,0,0,0,0,2,2,2,0,0,0,1.65,1v5.67c0,5.7,3.23,9.37,8.22,9.37a8.25,8.25,0,0,0,4.22-1,2,2,0,0,0,1.51.69H65a2,2,0,0,0,1.8-2.86,8,8,0,0,1-.41-3.11V23.49c0-1.13,0-2.7.14-3.65A2,2,0,0,0,66,18.3a2,2,0,0,0-1.49-.67Zm0,4h0Z"/><path class="cls-1" d="M69.69,38.35A1,1,0,0,1,69,38a1,1,0,0,1-.27-.75c.08-1.26.11-2.55.11-3.83V23.61h-.87a1,1,0,0,1-.86-.49,1,1,0,0,1,0-1,18.21,18.21,0,0,0,1.18-2.79,1,1,0,0,1,1-.71h5.35a1,1,0,0,1,1,1v.22a5.45,5.45,0,0,1,3.81-1.56,6.64,6.64,0,0,1,1.4.12,2.4,2.4,0,0,0,.28,0,1,1,0,0,1,1,1V25a1,1,0,0,1-.54.89A1,1,0,0,1,81,26a1,1,0,0,1-.57-.18,3.51,3.51,0,0,0-2-.58c-1.41,0-2.4,1.92-2.4,3.65v4.59c0,1.45.05,2.66.15,3.8a1,1,0,0,1-1,1.09Z"/><path class="cls-2" d="M79.35,19.29a15.06,15.06,0,0,1,1.68.15V25a4.52,4.52,0,0,0-2.56-.76c-2.14,0-3.4,2.55-3.4,4.65v4.59c0,1.29,0,2.59.16,3.89H69.69c.08-1.3.11-2.6.11-3.89V22.61H67.93a17.5,17.5,0,0,0,1.26-3h5.35v3.9c.69-2.52,2.56-4.24,4.81-4.24m0-2a6.36,6.36,0,0,0-3.37,1,2,2,0,0,0-1.44-.62H69.19a2,2,0,0,0-1.91,1.42,16.33,16.33,0,0,1-1.1,2.6,2,2,0,0,0,0,2,2,2,0,0,0,1.59,1v8.85c0,1.26,0,2.53-.11,3.77a2,2,0,0,0,2,2.12h5.54a2,2,0,0,0,1.47-.65,2,2,0,0,0,.52-1.53c-.1-1.11-.15-2.29-.15-3.71V28.87c0-1.29.72-2.65,1.4-2.65a2.43,2.43,0,0,1,1.42.41,2,2,0,0,0,2.07.12A2,2,0,0,0,83,25V19.44a2,2,0,0,0-2-2l-.1,0a8.48,8.48,0,0,0-1.58-.13Z"/><path class="cls-1" d="M94.62,38.62a8.33,8.33,0,0,1-4-1,1,1,0,0,1-1,.78H84.2a1,1,0,0,1-.74-.33,1,1,0,0,1-.26-.77c.11-1.09.15-2.87.15-3.79V13.34h-.87a1,1,0,0,1-.85-.47,1,1,0,0,1,0-1A31,31,0,0,0,82.75,9a1,1,0,0,1,1-.7h6a1,1,0,0,1,1,1.14,36.58,36.58,0,0,0-.15,3.72v6.3a8.69,8.69,0,0,1,4.54-1.19c5.58,0,9.63,4.19,9.63,10C104.75,34.26,100.49,38.62,94.62,38.62Zm-.76-14a3.62,3.62,0,0,0-3.39,3.81A3.67,3.67,0,0,0,94,32.27a3.59,3.59,0,0,0,3.39-3.82A3.67,3.67,0,0,0,93.86,24.64Z"/><path class="cls-2" d="M89.73,9.32h0m0,0c-.11.84-.15,2.64-.15,3.86v8.63a6.44,6.44,0,0,1,5.54-2.52c5.19,0,8.63,4,8.63,9,0,5.5-3.86,9.36-9.13,9.36-1.91,0-4.08-.8-5-2.29,0,.57,0,1.49,0,2H84.2c.11-1.14.15-2.94.15-3.89V12.34H82.48a32.2,32.2,0,0,0,1.22-3h6m4.24,24a4.59,4.59,0,0,0,4.39-4.82,4.46,4.46,0,1,0-8.89,0A4.66,4.66,0,0,0,94,33.27M89.74,7.32h-6a2,2,0,0,0-1.9,1.4,27.86,27.86,0,0,1-1.13,2.76,2,2,0,0,0,1.68,2.86V33.46c0,.9,0,2.64-.14,3.69a2,2,0,0,0,2,2.2h5.42a2,2,0,0,0,1.31-.49,9.56,9.56,0,0,0,3.69.76c6.45,0,11.13-4.78,11.13-11.36,0-6.25-4.57-11-10.63-11a10.16,10.16,0,0,0-3.54.61V13.18c0-1.46,0-2.87.13-3.5a2,2,0,0,0-2-2.36Zm0,4h0Zm4.24,20a2.67,2.67,0,0,1-2.5-2.82,2.63,2.63,0,0,1,2.39-2.81,2.67,2.67,0,0,1,2.5,2.81A2.6,2.6,0,0,1,94,31.27Z"/><path class="cls-1" d="M116.08,38.62a10.17,10.17,0,1,1,10.39-10.13A10.27,10.27,0,0,1,116.08,38.62Zm0-13.79a3.5,3.5,0,0,0-3.39,3.66,3.45,3.45,0,0,0,3.39,3.58,3.49,3.49,0,0,0,3.39-3.58A3.54,3.54,0,0,0,116.08,24.83Z"/><path class="cls-2" d="M116.08,19.29a9.17,9.17,0,1,1-9.4,9.2,9.3,9.3,0,0,1,9.4-9.2m0,13.78a4.48,4.48,0,0,0,4.39-4.58,4.54,4.54,0,0,0-4.39-4.66,4.49,4.49,0,0,0-4.39,4.66,4.43,4.43,0,0,0,4.39,4.58m0-15.78a11.17,11.17,0,1,0,11.39,11.2,11.32,11.32,0,0,0-11.39-11.2Zm0,13.78a2.43,2.43,0,0,1-2.39-2.58,2.48,2.48,0,0,1,2.39-2.66,2.54,2.54,0,0,1,2.39,2.66,2.49,2.49,0,0,1-2.39,2.58Z"/><path class="cls-1" d="M140.55,38.35a1,1,0,0,1-.74-.33,1,1,0,0,1-.25-.77c.1-1,.14-2.62.14-3.79V27.39c0-.89-.19-2.94-1.94-2.94s-2,1.77-2,2.82v6.19c0,1.1,0,2.76.11,3.82a1,1,0,0,1-.27.75,1,1,0,0,1-.73.32h-5.5a1,1,0,0,1-.73-.32,1,1,0,0,1-.27-.75c.08-1.06.12-2.76.12-3.82V23.65h-.87a1,1,0,0,1-.9-1.45,22.38,22.38,0,0,0,1.21-2.89,1,1,0,0,1,.94-.68h5.89a1,1,0,0,1,1,.84,7.27,7.27,0,0,1,4-1.18c4.59,0,7.22,3.32,7.22,9.1v6.07c0,1.09,0,2.74.15,3.79a1,1,0,0,1-.25.77,1,1,0,0,1-.74.33Z"/><path class="cls-2" d="M139.71,19.29c4.12,0,6.22,2.94,6.22,8.1v6.07c0,1.06,0,2.78.16,3.89h-5.54c.11-1.11.15-2.83.15-3.89V27.39c0-2.56-1.22-3.94-2.94-3.94-1.91,0-3,1.49-3,3.82v6.19c0,1.06,0,2.78.11,3.89h-5.5c.08-1.11.12-2.83.12-3.89V22.65h-1.87a23.94,23.94,0,0,0,1.25-3h5.89v2.22a5.84,5.84,0,0,1,5-2.56m0-2a8.36,8.36,0,0,0-3.65.84,2,2,0,0,0-1.31-.5h-5.89A2,2,0,0,0,127,19a24.43,24.43,0,0,1-1.16,2.78,2,2,0,0,0,1.66,2.89v8.81c0,1,0,2.71-.11,3.75a2,2,0,0,0,.53,1.51,2,2,0,0,0,1.46.63h5.5a2,2,0,0,0,1.46-.63,2,2,0,0,0,.53-1.51c-.07-1-.1-2.7-.1-3.75V27.27c0-1.82.76-1.82,1-1.82.85,0,.94,1.35.94,1.94v6.07c0,1.14,0,2.73-.14,3.69a2,2,0,0,0,2,2.2h5.54a2,2,0,0,0,1.48-.66,2,2,0,0,0,.51-1.55c-.1-.94-.15-2.53-.15-3.68V27.39c0-6.33-3.07-10.1-8.22-10.1Z"/><path class="cls-1" d="M178.28,38.67c-1.14-.07-3.87-.15-6.46-.15h-8.48a1,1,0,0,1-.72-.3,1,1,0,0,1-.28-.73c.08-2.08.15-5.09.15-6.8V18.16c0-2.67-.07-5.64-.15-6.73a1,1,0,0,1,.27-.75,1,1,0,0,1,.73-.31h4a1,1,0,0,1-.5-.53,1,1,0,0,1,.21-1.09l5-5a1,1,0,0,1,.71-.29H179a1,1,0,0,1,.62,1.78l-6.26,5a.78.78,0,0,1-.18.11c2,0,3.86-.11,4.8-.17H178a1,1,0,0,1,.69.27,1,1,0,0,1,.31.73v4.88a1,1,0,0,1-1,1H178c-1-.1-3.27-.15-6.44-.15H170V20.6h1.18c2.59,0,5.09-.08,6.23-.15h.07a1,1,0,0,1,.68.27,1,1,0,0,1,.32.73V26.3a1,1,0,0,1-1,1h-.07c-1.13-.07-3.63-.15-6.23-.15H170v4.8h1.79c2.9,0,5.44,0,6.46-.11h.07a1,1,0,0,1,1,1v4.85a1,1,0,0,1-.32.73,1,1,0,0,1-.68.27Z"/><path class="cls-2" d="M179,4.42l-6.27,5h-5l5-5H179m-1,6.76v4.88c-1.18-.11-3.93-.15-6.53-.15H169V21.6h2.18c2.59,0,5.11-.08,6.3-.15V26.3c-1.19-.08-3.71-.16-6.3-.16H169v6.8h2.79c2.63,0,5.38,0,6.53-.12v4.85c-1.15-.07-3.9-.15-6.53-.15h-8.48c.08-2.1.15-5.12.15-6.83V18.16c0-2.63-.07-5.65-.15-6.79h8.17c2.6,0,5.35-.12,6.53-.19m1-8.76h-6.19A2,2,0,0,0,171.4,3l-5,5a2.06,2.06,0,0,0-.59,1.33h-2.43a2,2,0,0,0-1.46.63,2,2,0,0,0-.53,1.5c.07,1.07.14,4,.14,6.66V30.69c0,1.7-.07,4.69-.15,6.76a2,2,0,0,0,.56,1.46,2,2,0,0,0,1.44.61h8.48c2.58,0,5.28.08,6.4.15h.13a2,2,0,0,0,1.36-.54,2,2,0,0,0,.64-1.46V32.82a2,2,0,0,0-.64-1.46,2,2,0,0,0-1.36-.54h-.14c-1,.07-3.5.11-6.39.11H171v-2.8h.18c2.57,0,5,.08,6.16.15h.14a2,2,0,0,0,1.36-.54,2,2,0,0,0,.64-1.46V21.45a2,2,0,0,0-.64-1.46,2,2,0,0,0-1.36-.54h-.14c-1.11.07-3.59.15-6.16.15H171V17.91h.48c3.09,0,5.4.05,6.34.14H178a2,2,0,0,0,2-2V11.18a2,2,0,0,0-2-2h-.12l-1.76.09L180.25,6a2,2,0,0,0,.63-2.23A2,2,0,0,0,179,2.42Zm0,4Z"/><path class="cls-1" d="M182.58,38.52a1,1,0,0,1-1-1.13,36.65,36.65,0,0,0,.15-3.76V13.51h-.87a1,1,0,0,1-.89-1.46,18.82,18.82,0,0,0,1.11-2.83,1,1,0,0,1,1-.72h6.07a1,1,0,0,1,1,1.13c-.1.81-.14,2.51-.14,3.72V33.63a35,35,0,0,0,.14,3.76,1,1,0,0,1-.24.79,1,1,0,0,1-.75.34Z"/><path class="cls-2" d="M188.12,9.5c-.11.87-.15,2.63-.15,3.85V33.63a37.87,37.87,0,0,0,.15,3.89h-5.54a36.15,36.15,0,0,0,.16-3.89V12.51h-1.87a19.72,19.72,0,0,0,1.18-3h6.07m0-2h-6.07A2,2,0,0,0,180.12,9a16.09,16.09,0,0,1-1,2.63,2,2,0,0,0,1.65,2.93V33.63a35.64,35.64,0,0,1-.14,3.62,2,2,0,0,0,2,2.27h5.54a2,2,0,0,0,2-2.27,35.6,35.6,0,0,1-.13-3.62V13.35c0-1.27,0-2.88.13-3.59a2,2,0,0,0-2-2.26Zm0,4h0Z"/><path class="cls-1" d="M204.8,39a4.45,4.45,0,0,1-3.35-1.34,6.5,6.5,0,0,1-4,1.34c-4.13,0-6.91-2.52-6.91-6.27,0-3.91,3-6.65,7.26-6.65a7.67,7.67,0,0,1,2.54.45c-.22-1.29-1.19-2-2.85-2a5.22,5.22,0,0,0-3.87,1.53,1,1,0,0,1-.67.26,1,1,0,0,1-1-1V20.68a1,1,0,0,1,.85-1,8.61,8.61,0,0,0,1.17-.34,13.78,13.78,0,0,1,4.9-.9c5.52,0,8.44,3.12,8.44,9v4.81a2.49,2.49,0,0,0,.07.68,1.21,1.21,0,0,0,.28,0,1,1,0,0,1,.56-.17.91.91,0,0,1,.43.1,1,1,0,0,1,.57.9v3.13a1,1,0,0,1-.42.82A6.2,6.2,0,0,1,204.8,39Zm-5.72-7.52c-.82,0-1.37.4-1.37,1s.54,1,1.37,1,1.36-.48,1.36-1S199.86,31.46,199.08,31.46Z"/><path class="cls-2" d="M198.85,19.46c5.15,0,7.44,2.86,7.44,8v4.81c0,1.38.46,1.68,1,1.68a1.49,1.49,0,0,0,.91-.19v3.13A5.21,5.21,0,0,1,204.8,38,3.12,3.12,0,0,1,201.64,36,5.24,5.24,0,0,1,197.43,38c-3.55,0-5.91-2.1-5.91-5.27s2.25-5.65,6.26-5.65a5.35,5.35,0,0,1,3.59,1.22V27.1c0-2.06-1.3-3.55-3.9-3.55a6.22,6.22,0,0,0-4.54,1.79V20.68c1.26-.19,2.79-1.22,5.92-1.22m.23,15a2.23,2.23,0,0,0,2.36-2,2.22,2.22,0,0,0-2.36-2,2,2,0,1,0,0,4m-.23-17a14.83,14.83,0,0,0-5.22.95,8.63,8.63,0,0,1-1,.3,2,2,0,0,0-1.7,2v4.66a2,2,0,0,0,1,1.74,7.33,7.33,0,0,0-2.43,5.63c0,4.28,3.25,7.27,7.91,7.27a7.55,7.55,0,0,0,3.95-1.08A5.65,5.65,0,0,0,204.8,40a7.2,7.2,0,0,0,4.57-1.44,2,2,0,0,0,.83-1.63V33.78a2,2,0,0,0-1.13-1.8,2,2,0,0,0-.78-.2v-4.3c0-6.46-3.35-10-9.44-10Zm.11,15h0Z"/><path class="cls-1" d="M219.08,48.53c-5.81,0-10.2-2.91-10.2-6.77a5.14,5.14,0,0,1,1.92-4,4.44,4.44,0,0,1-1.08-2.91,4.58,4.58,0,0,1,2.13-3.76,7.44,7.44,0,0,1-1.63-4.68c0-4.46,4-7.95,9.09-7.95a9.55,9.55,0,0,1,4,.89,1,1,0,0,1,.9-.54h4.24a1,1,0,0,1,1,1,5.07,5.07,0,0,1-1.69,3.76,6.91,6.91,0,0,1,.62,2.84c0,4.19-3.65,7.64-8.29,8,5.7.28,9.47,3.1,9.47,7.2C229.59,45.49,225,48.53,219.08,48.53Zm-.23-8c-1.6,0-2.66.73-2.66,1.21s1.19,1.29,2.89,1.29c2,0,3-.68,3-1.18S220.88,40.55,218.85,40.55Zm-2.21-6.49c-.11,0-.11.21-.11.22,0,.2.24.29.45.29a5.48,5.48,0,0,0,.6-.06c.3,0,.65-.08,1-.11a10.83,10.83,0,0,1-1.26-.22A5,5,0,0,0,216.64,34.06Zm2.63-9.48a1.81,1.81,0,0,0-1.78,1.83,1.83,1.83,0,0,0,1.78,1.87,1.85,1.85,0,0,0,0-3.7Z"/><path class="cls-2" d="M219.31,19.46a8.4,8.4,0,0,1,4.58,1.34,1.64,1.64,0,0,0,.35-1h4.24a4,4,0,0,1-2,3.47,5.78,5.78,0,0,1,.92,3.13c0,3.86-3.55,7-8.1,7-1.14,0-2.06-.38-2.67-.38a1.14,1.14,0,0,0-1.11,1.22A1.35,1.35,0,0,0,217,35.57c.46,0,1.26-.19,2.18-.19,5,0,9.43,2.14,9.43,6.23,0,3.32-4.28,5.92-9.51,5.92s-9.2-2.41-9.2-5.77a4.53,4.53,0,0,1,2.64-4,3.14,3.14,0,0,1-1.8-2.94,3.62,3.62,0,0,1,2.86-3.4,6.58,6.58,0,0,1-2.36-5c0-3.82,3.51-6.95,8.09-6.95m0,9.82a2.85,2.85,0,0,0,0-5.69,2.85,2.85,0,0,0,0,5.69m-.19,14.77c2.33,0,4-.88,4-2.18s-1.87-2.32-4.28-2.32c-2,0-3.66,1-3.66,2.21s1.68,2.29,3.89,2.29m.23-26.59c-5.66,0-10.09,3.93-10.09,9a8.46,8.46,0,0,0,1.27,4.49,5.39,5.39,0,0,0-1,6.75,6.13,6.13,0,0,0-1.6,4.11c0,4.43,4.82,7.77,11.2,7.77s11.51-3.48,11.51-7.92c0-3.5-2.32-6.18-6.12-7.44a8.91,8.91,0,0,0,4.94-7.76,7.94,7.94,0,0,0-.45-2.6,6.14,6.14,0,0,0,1.52-4,2,2,0,0,0-2-2h-4.24a2,2,0,0,0-1.14.35,10.61,10.61,0,0,0-3.79-.7Zm0,9.82a.82.82,0,0,1-.78-.87.8.8,0,0,1,.78-.82.85.85,0,0,1,.83.82.86.86,0,0,1-.83.87Zm-1.72,14.5a3.44,3.44,0,0,1,1.3-.23,5.17,5.17,0,0,1,1.81.29,5.3,5.3,0,0,1-1.58.21,4,4,0,0,1-1.53-.27Z"/><path class="cls-1" d="M243.52,39a4.44,4.44,0,0,1-3.35-1.34,6.55,6.55,0,0,1-4,1.34c-4.14,0-6.92-2.52-6.92-6.27,0-3.91,3-6.65,7.26-6.65a7.62,7.62,0,0,1,2.54.45c-.21-1.29-1.19-2-2.85-2a5.23,5.23,0,0,0-3.87,1.53,1,1,0,0,1-1.08.17,1,1,0,0,1-.59-.91V20.68a1,1,0,0,1,.85-1,8.61,8.61,0,0,0,1.17-.34,13.78,13.78,0,0,1,4.9-.9c5.52,0,8.44,3.12,8.44,9v4.81a2.49,2.49,0,0,0,.07.68,1.33,1.33,0,0,0,.29,0,1,1,0,0,1,.56-.17,1,1,0,0,1,.43.1,1,1,0,0,1,.57.9v3.13a1,1,0,0,1-.42.82A6.22,6.22,0,0,1,243.52,39Zm-5.73-7.52c-.82,0-1.37.4-1.37,1s.54,1,1.37,1,1.37-.48,1.37-1S238.57,31.46,237.79,31.46Z"/><path class="cls-2" d="M237.56,19.46c5.15,0,7.44,2.86,7.44,8v4.81c0,1.38.46,1.68,1,1.68a1.54,1.54,0,0,0,.92-.19v3.13a5.25,5.25,0,0,1-3.4,1.07A3.14,3.14,0,0,1,240.35,36a5.23,5.23,0,0,1-4.2,1.95c-3.55,0-5.92-2.1-5.92-5.27s2.25-5.65,6.26-5.65a5.3,5.3,0,0,1,3.59,1.22V27.1c0-2.06-1.3-3.55-3.9-3.55a6.23,6.23,0,0,0-4.54,1.79V20.68c1.26-.19,2.79-1.22,5.92-1.22m.23,15a2.23,2.23,0,0,0,2.37-2,2.22,2.22,0,0,0-2.37-2,2,2,0,1,0,0,4m-.23-17a14.83,14.83,0,0,0-5.22.95,8.08,8.08,0,0,1-1,.3,2,2,0,0,0-1.7,2v4.66a2,2,0,0,0,1,1.74,7.36,7.36,0,0,0-2.43,5.63c0,4.28,3.25,7.27,7.92,7.27a7.54,7.54,0,0,0,3.94-1.08A5.66,5.66,0,0,0,243.52,40a7.19,7.19,0,0,0,4.56-1.44,2,2,0,0,0,.84-1.63V33.78a2,2,0,0,0-1.92-2v-4.3c0-6.46-3.35-10-9.44-10Zm.11,15h0Z"/><path class="cls-1" d="M257.79,48.53c-5.81,0-10.2-2.91-10.2-6.77a5.25,5.25,0,0,1,1.92-4,4.44,4.44,0,0,1-1.08-2.91,4.58,4.58,0,0,1,2.13-3.76,7.44,7.44,0,0,1-1.63-4.68c0-4.46,4-7.95,9.09-7.95a9.67,9.67,0,0,1,4,.89,1,1,0,0,1,.89-.54h4.23a1,1,0,0,1,1,1,5.1,5.1,0,0,1-1.68,3.76,7,7,0,0,1,.62,2.84c0,4.19-3.65,7.64-8.29,8,5.7.28,9.47,3.1,9.47,7.2C268.3,45.49,263.68,48.53,257.79,48.53Zm-.23-8c-1.6,0-2.66.73-2.66,1.21s1.19,1.29,2.89,1.29c2,0,3-.68,3-1.18S259.59,40.55,257.56,40.55Zm-2.21-6.49c-.11,0-.11.21-.11.22,0,.19.23.29.45.29a5.48,5.48,0,0,0,.6-.06c.3,0,.65-.08,1-.11a10.83,10.83,0,0,1-1.26-.22A4.61,4.61,0,0,0,255.35,34.06ZM258,24.58a1.81,1.81,0,0,0-1.78,1.83A1.83,1.83,0,0,0,258,28.28a1.85,1.85,0,0,0,0-3.7Z"/><path class="cls-2" d="M258,19.46a8.46,8.46,0,0,1,4.59,1.34,1.7,1.7,0,0,0,.34-1h4.23a4,4,0,0,1-2,3.47,5.86,5.86,0,0,1,.92,3.13c0,3.86-3.56,7-8.1,7-1.14,0-2.06-.38-2.67-.38a1.14,1.14,0,0,0-1.11,1.22,1.35,1.35,0,0,0,1.45,1.29c.46,0,1.26-.19,2.18-.19,5,0,9.43,2.14,9.43,6.23,0,3.32-4.28,5.92-9.51,5.92s-9.2-2.41-9.2-5.77a4.54,4.54,0,0,1,2.63-4,3.15,3.15,0,0,1-1.79-2.94,3.62,3.62,0,0,1,2.86-3.4,6.58,6.58,0,0,1-2.36-5c0-3.82,3.51-6.95,8.09-6.95m0,9.82a2.85,2.85,0,0,0,0-5.69,2.85,2.85,0,0,0,0,5.69m-.19,14.77c2.33,0,4-.88,4-2.18s-1.87-2.32-4.28-2.32c-2,0-3.66,1-3.66,2.21s1.68,2.29,3.89,2.29M258,17.46c-5.66,0-10.09,3.93-10.09,9a8.46,8.46,0,0,0,1.27,4.49,5.39,5.39,0,0,0-1,6.75,6.13,6.13,0,0,0-1.6,4.11c0,4.43,4.82,7.77,11.2,7.77s11.51-3.48,11.51-7.92c0-3.5-2.32-6.18-6.12-7.44a8.91,8.91,0,0,0,4.94-7.76,7.94,7.94,0,0,0-.45-2.6,6.13,6.13,0,0,0,1.51-4,2,2,0,0,0-2-2H263a2,2,0,0,0-1.14.35,10.61,10.61,0,0,0-3.79-.7Zm0,9.82a.83.83,0,0,1-.78-.87.81.81,0,0,1,.78-.82.85.85,0,0,1,.83.82.86.86,0,0,1-.83.87Zm-1.72,14.5a3.44,3.44,0,0,1,1.3-.23,5.22,5.22,0,0,1,1.81.29,5.3,5.3,0,0,1-1.58.21,4,4,0,0,1-1.53-.27Z"/><path class="cls-1" d="M278.64,38.83c-6,0-10.47-4.36-10.47-10.13s4.21-10.2,9.59-10.2c5.93,0,9.48,5,9.48,9.82a6.64,6.64,0,0,1-.17,1.66,1,1,0,0,1-.95.68H275.9a4,4,0,0,0,3.61,2,7.25,7.25,0,0,0,4.26-1,1.07,1.07,0,0,1,.52-.14,1,1,0,0,1,.49.13,1,1,0,0,1,.51.87V37a1,1,0,0,1-1,1,7,7,0,0,0-1.38.26A16.78,16.78,0,0,1,278.64,38.83Zm.77-13.72a2,2,0,0,0-1.65-.87,2.1,2.1,0,0,0-1.74.87Z"/><path class="cls-2" d="M277.76,19.5a8.62,8.62,0,0,1,8.48,8.82,5.77,5.77,0,0,1-.12,1.34H274.51a4.91,4.91,0,0,0,5,4,8.29,8.29,0,0,0,4.78-1.14V37c-1.26,0-2.71.84-5.65.84-5.5,0-9.47-4-9.47-9.13s3.74-9.2,8.59-9.2m-3.32,6.61h6.41a3.18,3.18,0,0,0-3.09-2.87c-1.72,0-2.83,1.19-3.32,2.87m3.32-8.61c-5.94,0-10.59,4.92-10.59,11.2s4.93,11.13,11.47,11.13a17.77,17.77,0,0,0,4.54-.61,6.31,6.31,0,0,1,1.17-.23,2,2,0,0,0,1.94-2V32.56a2,2,0,0,0-.22-.9h.05A2,2,0,0,0,288,30.3a6.46,6.46,0,0,0,.23-2A11.32,11.32,0,0,0,285.48,21a10.13,10.13,0,0,0-7.72-3.47Zm1.15,14.16h1.83c-.36,0-.76,0-1.23,0a3.86,3.86,0,0,1-.6,0Z"/></svg>