<svg id="Calque_1" data-name="Calque 1" xmlns="http://www.w3.org/2000/svg" viewBox="0 0 50 50"><defs><style>.cls-1{fill:#fff;}</style></defs><title>Icones_bourbonElagagePlan de travail 1 copie 2</title><path class="cls-1" d="M24,26.68a1,1,0,0,1-.91-1.25l1.38-4.35a.92.92,0,0,1,.23-.39L40.09,5.29a1,1,0,0,1,1.36,0l3,3a1,1,0,0,1,0,1.35L29,25a1,1,0,0,1-.39.24l-4.35,1.38A.92.92,0,0,1,24,26.68Zm2.23-4.79-.75,2.36,2.36-.75L42.38,8.93,40.77,7.32Z"/><path class="cls-1" d="M41.33,12.34a.94.94,0,0,1-.68-.28l-3-3A1,1,0,0,1,39,7.73l3,3a1,1,0,0,1,0,1.36A1,1,0,0,1,41.33,12.34Z"/><path class="cls-1" d="M37.47,38.67H13.19a1,1,0,0,1-1-1V10a1,1,0,0,1,1-1H36.66a1,1,0,1,1,0,1.92H14.15V36.75H36.51V16a1,1,0,0,1,1.92,0V37.71A1,1,0,0,1,37.47,38.67Z"/><path class="cls-1" d="M29.44,17.44H17.35a1,1,0,0,1,0-1.92H29.44a1,1,0,1,1,0,1.92Z"/><path class="cls-1" d="M25.36,22.12h-8a1,1,0,0,1,0-1.92h8a1,1,0,0,1,0,1.92Z"/><path class="cls-1" d="M23.69,26.81H17.35a1,1,0,1,1,0-1.92h6.34a1,1,0,1,1,0,1.92Z"/></svg>