<svg id="Calque_1" data-name="Calque 1" xmlns="http://www.w3.org/2000/svg" viewBox="0 0 50 50"><defs><style>.cls-1{fill:#930;}</style></defs><title>Icones_bourbonElagagePlan de travail 1 copie 3</title><path class="cls-1" d="M21.44,26.68a1,1,0,0,1-.68-.28,1,1,0,0,1-.24-1l1.38-4.35a1.06,1.06,0,0,1,.24-.39L37.55,5.29a1,1,0,0,1,1.36,0l3,3a.93.93,0,0,1,0,1.35L26.47,25a1,1,0,0,1-.39.24l-4.35,1.38A1,1,0,0,1,21.44,26.68Zm2.22-4.79-.75,2.36,2.37-.75L39.84,8.93,38.23,7.32Z"/><path class="cls-1" d="M38.79,12.34a.94.94,0,0,1-.68-.28l-3-3A1,1,0,0,1,36.5,7.73l3,3a1,1,0,0,1,0,1.36A1,1,0,0,1,38.79,12.34Z"/><path class="cls-1" d="M34.93,38.67H10.64a1,1,0,0,1-1-1V10a1,1,0,0,1,1-1H34.12a1,1,0,1,1,0,1.92H11.6V36.75H34V16a1,1,0,1,1,1.92,0V37.71A1,1,0,0,1,34.93,38.67Z"/><path class="cls-1" d="M26.9,17.44H14.81a1,1,0,1,1,0-1.92H26.9a1,1,0,0,1,0,1.92Z"/><path class="cls-1" d="M22.82,22.12h-8a1,1,0,1,1,0-1.92h8a1,1,0,0,1,0,1.92Z"/><path class="cls-1" d="M21.14,26.81H14.81a1,1,0,1,1,0-1.92h6.33a1,1,0,1,1,0,1.92Z"/></svg>