<svg id="_ÎÓÈ_1" data-name="—ÎÓÈ_1" xmlns="http://www.w3.org/2000/svg" viewBox="0 0 90 90"><defs><style>.cls-1{fill:#ec954c;}.cls-2{fill:#fff;}.cls-3{fill:#ed8724;}.cls-4{fill:#f5f3f3;}.cls-5{fill:#ff9945;}.cls-6{fill:#e9c8aa;}</style></defs><path class="cls-1" d="M32.32,49.73s-11.5-18-26.46-16.86c-7.64,16.36,9.31,27.64,9.31,27.64l18.31,3.58Z"/><path class="cls-2" d="M21.59,38.3,19.1,47.42,6.21,32.85l-.35,0-.09.19,6.9,7.81-8.78,0a2.09,2.09,0,0,1,0,.25v.22l9.2,0,11.51,13-15.43.53.38.46L25,54.8,33.17,64l.31.06,0-.46-14-15.79L22,38.61Z"/><path class="cls-3" d="M29.12,59.43s-16.5-6.67-24.69,2c6.32,23.59,36.76,17.21,36.76,17.21Z"/><path class="cls-4" d="M4.43,61.47c0,.09.05.18.07.27l23,7.29-10.91,7.3.5.23,11-7.35,9,2.85-.39-.62L19.17,65.9l-4.64-8.84-.5,0,4.51,8.59L4.61,61.28l-.18.19Z"/><path class="cls-3" d="M65.44,29.77s6.43-17,20.25-18.19C93.77,24,81.27,35.14,81.27,35.14l-14.49,5Z"/><path class="cls-2" d="M73.5,17.79l3.07,7.14L85.4,11.6l.29,0,.09.14-4.72,7.14,7.15-1,0,.2,0,.18-7.49,1-7.88,11.9L85.5,29.86l-.25.42L72.62,31.61,67,40.06l-.24.08,0-.38,9.57-14.44-3.11-7.23Z"/><path class="cls-5" d="M69.79,35.85,58.33,41C62,43.09,65,46.66,65.11,51c0,.28,0,.56,0,.83a23.25,23.25,0,0,0,11.8-1.16C83,48.4,89,43.82,90.12,34.69,82.46,28.53,69.79,35.85,69.79,35.85Z"/><path class="cls-2" d="M90.12,34.69h0L90,34.56,79.12,39.74l2.69-7.5-.42,0L78.62,40,64,46.66l.23.48,7.55-3.46,9.78,4.73.38-.25-9.71-4.69,17.87-8.55Z"/><path class="cls-6" d="M15.27,12.47v5h7.31v6.9h-.23V74.91a7.2,7.2,0,0,0,7.19,7.19h0l38.81,0V24A11.57,11.57,0,0,0,56.78,12.47Z"/><path class="cls-5" d="M10.29,22.09V17.46a5.26,5.26,0,0,1,5.24-5.24,7.19,7.19,0,0,1,7.2,7.13v2.74Z"/><rect class="cls-3" x="34.38" y="25.34" width="24.83" height="1.04"/><rect class="cls-3" x="34.38" y="29.51" width="24.83" height="1.04"/><rect class="cls-3" x="34.38" y="34.2" width="24.83" height="1.04"/><rect class="cls-3" x="34.38" y="38.37" width="24.83" height="1.04"/><rect class="cls-3" x="34.38" y="42.18" width="24.83" height="1.04"/><rect class="cls-3" x="34.38" y="46.35" width="24.83" height="1.04"/><rect class="cls-3" x="34.38" y="51.04" width="24.83" height="1.04"/><rect class="cls-3" x="34.38" y="55.21" width="24.83" height="1.04"/><rect class="cls-3" x="49.17" y="62.37" width="10.05" height="1.04"/><path class="cls-5" d="M70.2,82.14H31.64s7.79-1.6,5.2-11.21H77.89S80.48,82.14,70.2,82.14Z"/></svg>