<svg id="Calque_1" data-name="Calque 1" xmlns="http://www.w3.org/2000/svg" viewBox="0 0 50 50"><defs><style>.cls-1{fill:#fff;}</style></defs><title>Icones_bourbonElagagePlan de travail 1</title><path class="cls-1" d="M16.74,44.33a1,1,0,0,1-.46-.12.94.94,0,0,1-.49-1L17.67,29l.45-2.19A.9.9,0,0,1,18,26.5L16.65,25,8.06,14.42a1,1,0,0,1,.81-1.56L47.3,15.58a1,1,0,0,1,.84.66,1,1,0,0,1-.28,1L17.37,44.09A.94.94,0,0,1,16.74,44.33ZM20,27.07l-.47,2.27L18,41,42.9,19.07ZM10.94,14.93l7.15,8.85,1.38,1.45,23.05-8.06Z"/></svg>