<svg id="Calque_1" data-name="Calque 1" xmlns="http://www.w3.org/2000/svg" viewBox="0 0 50 50"><defs><style>.cls-1{fill:#fff;}</style></defs><title>Icones_bourbonElagagePlan de travail 1 copie 4</title><path class="cls-1" d="M26.73,41.82a1,1,0,0,1-.68-.28c-3-3-9.62-10.65-11.29-14a13.2,13.2,0,0,1-1.41-6,13.39,13.39,0,1,1,25.36,6c-1.68,3.34-8.27,11-11.3,14A1,1,0,0,1,26.73,41.82Zm0-31.72A11.48,11.48,0,0,0,16.47,26.69c1.45,2.9,7.15,9.55,10.26,12.8,3.11-3.25,8.81-9.9,10.26-12.8A11.47,11.47,0,0,0,26.73,10.1Z"/><path class="cls-1" d="M30.86,28.19a.92.92,0,0,1-.42-.1l-3.71-1.8L23,28.09A.94.94,0,0,1,22,28a1,1,0,0,1-.39-.91L22.22,23l-2.86-3a1,1,0,0,1,.52-1.61l4.06-.72,1.94-3.64a1,1,0,0,1,1.7,0l1.94,3.64,4.06.72a1,1,0,0,1,.75.65,1,1,0,0,1-.22,1l-2.86,3,.56,4.09a1,1,0,0,1-.38.91A1,1,0,0,1,30.86,28.19Zm-4.13-3.92a1,1,0,0,1,.42.09l2.51,1.22-.38-2.77a1,1,0,0,1,.26-.79l1.94-2-2.75-.49a1,1,0,0,1-.68-.49l-1.32-2.46L25.42,19a1,1,0,0,1-.68.49L22,20l1.93,2a.93.93,0,0,1,.26.79l-.38,2.77,2.51-1.22A1,1,0,0,1,26.73,24.27Z"/></svg>