<svg id="Calque_1" data-name="Calque 1" xmlns="http://www.w3.org/2000/svg" viewBox="0 0 50 50"><defs><style>.cls-1{fill:#930;}</style></defs><title>Icones_bourbonElagagePlan de travail 1 copie 5</title><path class="cls-1" d="M25,41.82a1,1,0,0,1-.68-.28c-3-3-9.62-10.65-11.29-14a13.2,13.2,0,0,1-1.41-6A13.39,13.39,0,0,1,25,8.18,13.39,13.39,0,0,1,37,27.55c-1.67,3.34-8.26,11-11.29,14A1,1,0,0,1,25,41.82ZM25,10.1A11.48,11.48,0,0,0,14.74,26.69c1.45,2.9,7.15,9.55,10.26,12.8,3.11-3.25,8.81-9.9,10.26-12.8A11.47,11.47,0,0,0,25,10.1Z"/><path class="cls-1" d="M29.13,28.19a.9.9,0,0,1-.42-.1L25,26.29l-3.71,1.8a.94.94,0,0,1-1-.08,1,1,0,0,1-.39-.91L20.49,23l-2.86-3a1,1,0,0,1,.52-1.61l4.06-.72,1.94-3.64a1,1,0,0,1,1.7,0l1.94,3.64,4.06.72a1,1,0,0,1,.75.65,1,1,0,0,1-.22,1l-2.87,3,.57,4.09a1,1,0,0,1-.39.91A.94.94,0,0,1,29.13,28.19ZM25,24.27a1,1,0,0,1,.42.09l2.51,1.22-.38-2.77a.93.93,0,0,1,.26-.79l1.94-2L27,19.51a1,1,0,0,1-.67-.49L25,16.56,23.68,19a.92.92,0,0,1-.67.49L20.26,20l1.93,2a.93.93,0,0,1,.26.79l-.38,2.77,2.51-1.22A1,1,0,0,1,25,24.27Z"/></svg>