<svg id="Calque_1" data-name="Calque 1" xmlns="http://www.w3.org/2000/svg" viewBox="0 0 50 50">
<defs>
   <style>.cls-1{fill:#fff;}</style>
</defs>

<path class="cls-1" d="M35.47,23.81h-.16a1,1,0,0,1-.79-1.1,7.34,7.34,0,0,0-.22-3.22,7.65,7.65,0,0,0-1.91-3.21,5.67,5.67,0,0,0-3.1-1.65,4.41,4.41,0,0,0-2,.12,1,1,0,1,1-.55-1.84,6.44,6.44,0,0,1,2.83-.18,7.66,7.66,0,0,1,4.16,2.19,9.49,9.49,0,0,1,2.39,4A9.16,9.16,0,0,1,36.41,23,1,1,0,0,1,35.47,23.81Z"/>
<path class="cls-1" d="M41.37,26.7a1,1,0,0,1-.29-.05,1,1,0,0,1-.62-1.21,13.29,13.29,0,0,0,0-8.34,13.88,13.88,0,0,0-3.12-5.27,12.37,12.37,0,0,0-5-3.24,10.89,10.89,0,0,0-6.75,0A1,1,0,1,1,25,6.78a12.75,12.75,0,0,1,7.94,0,14.39,14.39,0,0,1,5.82,3.73,16,16,0,0,1,3.56,6,15.29,15.29,0,0,1,0,9.53A1,1,0,0,1,41.37,26.7Z"/>
<path class="cls-1" d="M25.18,34c-2.5,0-5.49-1.72-7.74-4.65-3-3.93-3.56-8.57-1.29-10.78a1,1,0,0,1,1.36,0,1,1,0,0,1,0,1.35C16,21.44,16.62,25.14,19,28.19s5.74,4.65,7.57,3.56a1,1,0,1,1,1,1.65A4.5,4.5,0,0,1,25.18,34Z"/>
<path class="cls-1" d="M29.05,43.85c-4.11,0-10.24-4.33-15.66-11.4-6.66-8.7-9-17.45-5.51-20.36,2-1.64,2.28-1.79,2.69-1.83a1,1,0,0,1,1,.87,1,1,0,0,1-.67,1A23.18,23.18,0,0,0,9.1,13.57c-2.29,1.9-.5,9.46,5.82,17.72s13.19,12,15.58,10.23c1.35-1,1.78-1.35,1.9-1.47A1,1,0,0,1,34,41.1c-.15.26-.33.46-2.36,2A4.27,4.27,0,0,1,29.05,43.85Z"/>
<path class="cls-1" d="M34.64,40.81h-.26A2,2,0,0,1,33.07,40h0l-5.94-7.75a2,2,0,0,1,.37-2.77l2.69-2.06a2,2,0,0,1,2.77.36l5.94,7.75a2,2,0,0,1-.37,2.78l-2.69,2.06A2,2,0,0,1,34.64,40.81Zm0-1.94s0,0,0,0l2.73-2.08L31.44,29,28.66,31Z"/>
<path class="cls-1" d="M18.68,20l-.26,0a2,2,0,0,1-1.31-.76l-5.94-7.74a2,2,0,0,1,.37-2.78l2.69-2.06A2,2,0,0,1,17,7l5.94,7.75a2,2,0,0,1-.37,2.77l-2.69,2.06A1.94,1.94,0,0,1,18.68,20ZM15.48,8.17l-2.77,2.05,5.92,7.83h0l0,0L21.4,16Z"/>
</svg>