<svg id="Calque_1" data-name="Calque 1" xmlns="http://www.w3.org/2000/svg" viewBox="0 0 50 50"><defs><style>.cls-1{fill:#930;}</style></defs><title>ICONES_telPlan de travail 1 copie 10</title><path class="cls-1" d="M31.73,23.81h-.15a1,1,0,0,1-.8-1.1,7.19,7.19,0,0,0-.22-3.22,7.63,7.63,0,0,0-1.9-3.21,5.73,5.73,0,0,0-3.1-1.65,4.45,4.45,0,0,0-2,.12A1,1,0,1,1,23,12.9a6.48,6.48,0,0,1,2.84-.18A7.63,7.63,0,0,1,30,14.91a9.39,9.39,0,0,1,2.39,4A9.16,9.16,0,0,1,32.67,23,1,1,0,0,1,31.73,23.81Z"/><path class="cls-1" d="M37.64,26.7a1,1,0,0,1-.3-.05,1,1,0,0,1-.62-1.21,13.36,13.36,0,0,0,0-8.34,13.9,13.9,0,0,0-3.13-5.27,12.37,12.37,0,0,0-5-3.24,10.89,10.89,0,0,0-6.75,0,1,1,0,1,1-.59-1.82,12.75,12.75,0,0,1,7.94,0A14.32,14.32,0,0,1,35,10.5a15.87,15.87,0,0,1,3.56,6,15.29,15.29,0,0,1,0,9.53A1,1,0,0,1,37.64,26.7Z"/><path class="cls-1" d="M21.45,34c-2.51,0-5.5-1.72-7.75-4.65-3-3.93-3.56-8.57-1.29-10.78a1,1,0,0,1,1.36,0,1,1,0,0,1,0,1.35c-1.52,1.49-.86,5.19,1.47,8.24s5.74,4.65,7.57,3.56a1,1,0,1,1,1,1.65A4.49,4.49,0,0,1,21.45,34Z"/><path class="cls-1" d="M25.31,43.85c-4.1,0-10.24-4.33-15.65-11.4C3,23.75.62,15,4.14,12.09c2-1.64,2.29-1.79,2.69-1.83a1,1,0,0,1,.37,1.88,23.18,23.18,0,0,0-1.84,1.43c-2.29,1.9-.5,9.46,5.82,17.72s13.19,12,15.58,10.23c1.35-1,1.78-1.35,1.9-1.47a1,1,0,0,1,1.6,1.05c-.15.26-.32.46-2.36,2A4.25,4.25,0,0,1,25.31,43.85Z"/><path class="cls-1" d="M30.9,40.81h-.26A2,2,0,0,1,29.33,40h0l-5.94-7.75a2,2,0,0,1,.37-2.77l2.69-2.06a2,2,0,0,1,2.77.36l5.94,7.75a2,2,0,0,1-.37,2.78L32.1,40.41A2,2,0,0,1,30.9,40.81Zm0-1.94s0,0,0,0l2.73-2.08L27.7,29,24.93,31Z"/><path class="cls-1" d="M15,20l-.27,0a2,2,0,0,1-1.31-.76L7.43,11.47A2,2,0,0,1,7,10,2,2,0,0,1,7.8,8.69l2.69-2.06A2,2,0,0,1,13.26,7l5.94,7.75a2,2,0,0,1-.37,2.77l-2.69,2.06A1.91,1.91,0,0,1,15,20ZM11.74,8.17,9,10.22l5.93,7.83h0l0,0L17.67,16Z"/></svg>